<svg xmlns="http://www.w3.org/2000/svg" version="1.0" width="512.000000pt" height="512.000000pt" viewBox="0 0 512.000000 512.000000" preserveAspectRatio="xMidYMid meet">

<g transform="translate(0.000000,512.000000) scale(0.100000,-0.100000)" fill="#FF3D7F" stroke="none">
<path d="M2970 5106 c-31 -6 -79 -25 -107 -41 -38 -22 -336 -319 -1099 -1095 -576 -586 -1072 -1099 -1103 -1140 -74 -99 -123 -194 -165 -321 -130 -387 -69 -841 155 -1159 32 -45 226 -252 486 -517 529 -539 599 -605 700 -665 330 -195 777 -222 1135 -68 185 79 216 105 575 469 357 360 382 391 402 506 30 165 -62 341 -218 418 -60 29 -74 32 -161 32 -154 0 -156 -1 -525 -362 -384 -376 -372 -368 -570 -368 -208 0 -171 -28 -720 535 -253 260 -469 487 -482 505 -90 133 -88 378 4 505 16 20 233 248 483 505 541 557 505 530 710 530 202 -1 184 10 557 -354 379 -369 388 -376 538 -376 89 0 107 3 160 28 156 73 255 255 226 414 -23 120 -39 141 -365 477 -169 172 -330 332 -360 355 -61 47 -214 141 -230 141 -6 0 -17 4 -25 9 -11 7 35 60 195 228 139 144 217 234 231 264 109 232 -30 502 -281 548 -70 13 -75 13 -146 -3z m133 -210 c21 -8 48 -22 59 -33 55 -49 74 -149 41 -210 -10 -17 -134 -151 -275 -296 -142 -146 -262 -276 -268 -291 -26 -68 20 -124 127 -155 94 -28 212 -89 293 -150 72 -56 594 -586 634 -646 30 -43 34 -105 12 -158 -18 -44 -78 -95 -121 -103 -84 -15 -86 -14 -417 309 -170 166 -334 318 -364 338 -89 59 -170 81 -316 87 -145 5 -236 -10 -333 -57 -92 -43 -45 3 -941 -922 -112 -115 -137 -148 -173 -220 -94 -191 -94 -417 0 -608 38 -77 61 -105 254 -305 118 -122 343 -352 502 -513 313 -317 329 -329 483 -370 88 -23 271 -23 360 1 142 38 175 64 513 396 344 338 355 346 437 321 101 -30 157 -140 120 -236 -14 -38 -591 -628 -664 -680 -269 -190 -647 -235 -974 -114 -168 61 -204 92 -740 638 -269 274 -507 525 -529 557 -91 134 -143 268 -168 434 -45 290 22 586 178 795 41 56 2087 2144 2129 2174 44 30 88 36 141 17z" fill="#FF3D7F"/>
<path d="M2183 2441 c-143 -49 -238 -176 -250 -335 -13 -172 87 -331 245 -388 43 -16 135 -17 1134 -18 1076 0 1088 0 1143 21 77 29 156 104 197 187 31 62 33 73 33 172 0 99 -2 110 -32 171 -39 79 -102 140 -181 177 l-57 27 -1090 2 c-1028 2 -1093 2 -1142 -16z m2226 -220 c39 -28 70 -91 71 -141 0 -49 -38 -120 -79 -148 l-34 -22 -1063 2 c-1063 3 -1063 3 -1091 24 -99 74 -89 237 18 292 l44 22 1050 -2 1050 -3 34 -24z" fill="#FF3D7F"/>
</g>
</svg>